<mxfile host="65bd71144e">
    <diagram id="QtwQ2gXlbRhI4QnExQYK" name="Page-1">
        <mxGraphModel dx="960" dy="541" grid="1" gridSize="10" guides="1" tooltips="1" connect="1" arrows="1" fold="1" page="1" pageScale="1" pageWidth="1100" pageHeight="850" math="0" shadow="0">
            <root>
                <mxCell id="0"/>
                <mxCell id="1" parent="0"/>
                <mxCell id="2" value="bimar" style="rounded=0;whiteSpace=wrap;html=1;fillColor=#60a917;fontColor=#ffffff;strokeColor=#2D7600;fontFamily=Tahoma;fontStyle=1" vertex="1" parent="1">
                    <mxGeometry x="290" y="395" width="120" height="60" as="geometry"/>
                </mxCell>
                <mxCell id="4" value="" style="edgeStyle=none;html=1;fontFamily=Tahoma;" edge="1" parent="1" source="3" target="2">
                    <mxGeometry relative="1" as="geometry"/>
                </mxCell>
                <mxCell id="8" value="" style="edgeStyle=none;html=1;fontFamily=Tahoma;" edge="1" parent="1" source="3" target="7">
                    <mxGeometry relative="1" as="geometry"/>
                </mxCell>
                <mxCell id="3" value="" style="rhombus;whiteSpace=wrap;html=1;fontFamily=Tahoma;" vertex="1" parent="1">
                    <mxGeometry x="500" y="385" width="80" height="80" as="geometry"/>
                </mxCell>
                <mxCell id="7" value="" style="whiteSpace=wrap;html=1;fontFamily=Tahoma;" vertex="1" parent="1">
                    <mxGeometry x="640" y="395" width="120" height="60" as="geometry"/>
                </mxCell>
            </root>
        </mxGraphModel>
    </diagram>
</mxfile>